<svg id="Capa_1" enable-background="new 0 0 512 512" height="512" viewBox="0 0 512 512" width="512" xmlns="http://www.w3.org/2000/svg"><g><g><g><g><g><g><g><path d="m189.095 503.169c-108.938-29.416-189.095-128.932-189.095-247.169 0-51.962 15.482-100.309 42.084-140.678l67.276-69.188c41.533-29.075 92.094-46.134 146.64-46.134 141.385 0 256 114.615 256 256 0 122.5-86.029 224.901-200.974 250.072z" fill="#64e1dc"/></g></g></g></g></g></g><path d="m311.026 506.072c110.886-24.383 195.025-120.695 200.671-237.506l-80.25-80.097-19.127 28.935-29.066-28.9.061 1.263-69.766-69.582-7.341 22.098-35.892-35.799-14.292 54.46-82.83-78.069.252-3.427-.199-.13-74.557 123.961 110.01 110.01-32.133 98.649 84.793 84.567z" fill="#00c8c8"/><g><path d="m320.349 250.965c-11.107-.369-20.197 8.521-20.197 19.514v57.48c-.015.016-.025.027-.04.042l-5.608.39c-25.892 1.8-46.71 21.65-50.469 46.68l-12.247.106c3.574-29.579 26.613-53.633 56.193-58.253.013-.015.022-.025.035-.041v-47.084c0-.47.013-.938.037-1.402.623-11.809 10.341-25.162 22.973-27.094.032-.005 7.644 0 7.644 0v-108.304c0-10.271-8.326-18.598-18.597-18.598-10.271 0-18.597 8.326-18.597 18.597v115.467h-7.053v-130.078c0-10.084-7.841-18.673-17.919-19.031-10.58-.376-19.275 8.089-19.275 18.585v139.001h-5.851v-109.391c0-9.669-7.838-17.507-17.507-17.507-9.669 0-17.507 7.838-17.507 17.507v119.987h-5.85v-84.366c0-8.328-6.815-15.4-15.141-15.244-8.075.151-14.574 6.744-14.574 14.855v82.986 74.58 37.841h.231c1.647 18.643 12.532 34.628 28.046 43.355.013.007.021.021.021.036v81.588c21.325 5.759 43.755 8.831 66.903 8.831 18.889 0 37.301-2.046 55.026-5.928 0-30.419 0-81.961 0-81.961 0-.016.009-.031.024-.038 16.572-7.407 28.154-24.036 28.154-43.33v-109.805c-.001-10.6-8.259-19.621-18.855-19.973z" fill="#ffeee5"/></g><g fill="#ffcdbe"><path d="m287.981 316.924c.013-.015.022-.025.035-.041v-47.084c0-.47.013-.938.037-1.402.623-11.809 10.341-25.162 22.973-27.094.032-.005 7.644 0 7.644 0v-108.304c0-10.271-8.326-18.598-18.597-18.598-10.271 0-18.597 8.326-18.597 18.597v115.467h-7.053v-130.078c0-10.084-7.841-18.673-17.919-19.031-.129-.005-.253.008-.382.006v231.816c8.974-7.322 19.88-12.382 31.859-14.254z"/><path d="m339.203 270.939c0-10.601-8.258-19.622-18.854-19.974-11.107-.369-20.197 8.521-20.197 19.514v57.48c-.015.016-.025.027-.04.042l-5.608.39c-15.452 1.074-29.094 8.58-38.384 19.775v163.831c18.847-.009 37.219-2.053 54.905-5.927 0-30.419 0-81.961 0-81.961 0-.016.009-.031.024-.038 16.572-7.407 28.154-24.036 28.154-43.33z"/></g><g><path d="m215.368 160.277 3.274-3.274 47.154 47.155c4.578 4.578 12.086 4.923 16.747.43 4.748-4.578 4.801-12.139.157-16.783l-46.439-46.44-41.735-41.735-21.306-21.047c-11.354-9.511-26.391-12.365-39.956-8.568-.011.003-.023 0-.032-.008 0 0-11.155-11.155-23.872-23.873-26.556 18.59-49.421 42.093-67.276 69.188 11.612 11.613 21.499 21.498 21.499 21.498.009.009.012.023.008.034-5.129 13.418-2.305 29.205 8.492 40.002l61.401 61.402c5.891 5.891 15.49 6.419 21.639.798 6.555-5.993 6.712-16.152.517-22.347 0 0-20.999-21.016-29.559-29.593-1.944-1.947-1.853-5.122.193-6.961 1.9-1.708 4.804-1.63 6.609.178l29.929 29.965c.263.263.518.532.764.805 6.26 6.957 8.294 19.867 2.306 28.017-.015.021-4.278 4.277-4.278 4.277l60.608 60.609c5.748 5.748 15.066 5.748 20.814 0 5.748-5.748 5.748-15.066 0-20.814l-64.616-64.617 3.947-3.947 72.748 72.749c5.604 5.604 14.732 6.119 20.593.786 6.258-5.695 6.43-15.39.515-21.305l-77.785-77.786 3.274-3.274 61.216 61.216c5.411 5.411 14.183 5.411 19.594 0 5.411-5.41 5.411-14.183 0-19.593z" fill="#ffcdbe"/></g><g fill="#ffbeaa"><path d="m265.796 204.158c4.578 4.578 12.086 4.923 16.747.43 4.748-4.578 4.801-12.139.157-16.783l-26.579-26.58v33.257z"/><path d="m275.699 288.164c6.258-5.695 6.43-15.39.515-21.305l-20.094-20.094v41.535c5.643 4.719 14.059 4.888 19.579-.136z"/><path d="m282.513 227.423-26.392-26.393v39.187l6.798 6.798c5.411 5.411 14.183 5.411 19.594 0 5.41-5.409 5.41-14.181 0-19.592z"/></g><g><path d="m339.203 205.368c0-13.947 11.306-25.254 25.254-25.254 11.324 0 20.908 7.454 24.112 17.723 3.204-10.269 12.787-17.723 24.112-17.723 13.947 0 25.254 11.306 25.254 25.254 0 27.85-49.365 61.749-49.365 61.749s-49.367-35.552-49.367-61.749z" fill="#ff6c52"/></g><g><path d="m412.68 180.114c-11.324 0-20.908 7.454-24.112 17.723v69.279s49.365-33.899 49.365-61.749c.001-13.946-11.305-25.253-25.253-25.253z" fill="#ff432e"/></g></g></svg>